Coordinates
version=1
nRows=20
nColumns=34
inDegrees=yes

Units are S.I. units (second, meters, Newtons, ...)
If the header above contains a line with 'inDegrees', this indicates whether rotational values are in degrees (yes) or radians (no).

endheader
time	pelvis_tilt	pelvis_list	pelvis_rotation	pelvis_tx	pelvis_ty	pelvis_tz	hip_flexion_r	hip_adduction_r	hip_rotation_r	knee_angle_r	ankle_angle_r	subtalar_angle_r	mtp_angle_r	hip_flexion_l	hip_adduction_l	hip_rotation_l	knee_angle_l	ankle_angle_l	subtalar_angle_l	mtp_angle_l	lumbar_extension	lumbar_bending	lumbar_rotation	arm_flex_r	arm_add_r	arm_rot_r	elbow_flex_r	pro_sup_r	arm_flex_l	arm_add_l	arm_rot_l	elbow_flex_l	pro_sup_l
      1.20000000	     -6.57649775	      3.60248954	   -170.45637780	      0.47464158	      0.93372405	     -0.19035160	     43.71646928	     -1.07597543	     -3.60154729	    110.74032390	      8.99796635	      2.80772273	      0.00000000	     13.37630585	     -2.54721970	    -12.21446630	     20.95909019	     11.21778313	     -7.77930802	      0.00000000	    -16.16455434	      1.88126593	      3.32094464	     31.13450789	    -18.25037587	     86.71500968	     62.38759320	     86.83767946	     14.17695302	    -15.49892862	     19.12768848	     31.56765843	     76.60338811
      1.21666670	     -6.81666392	      3.98371414	   -169.31571287	      0.45904401	      0.93791077	     -0.18821056	     50.34515838	      0.00089225	     -4.33943603	    113.22399117	     13.49231463	      3.27440487	      0.00000000	     11.58436301	     -2.82497366	    -12.68041936	     19.81151984	     13.42956559	     -8.22517146	      0.00000000	    -16.94646244	      2.58340109	      3.86413200	     33.99440822	    -15.38473843	     69.84082978	     58.41634439	     87.69827205	     17.90259666	    -15.53900469	     13.79895296	     34.54557645	     77.45242386
      1.23333330	     -6.74302099	      4.81453910	   -168.60626063	      0.44335002	      0.94140483	     -0.18415469	     57.17929273	      1.50821057	     -5.13464985	    112.83816599	     20.81811931	      5.40700047	      0.00000000	     10.23931447	     -3.41667787	    -12.98248209	     18.67424876	     15.07306977	     -8.64151014	      0.00000000	    -17.92565884	      3.70057115	      6.54151465	     38.06258530	    -13.94458763	     53.04002773	     56.19248437	     94.23498766	     22.13081166	    -13.92826945	      8.48349723	     37.15135482	     83.15921459
      1.25000000	     -6.54956288	      6.06979351	   -168.37755611	      0.42979675	      0.94585067	     -0.17920934	     63.83171372	      3.38025850	     -5.96961519	    109.53924154	     25.41104610	      8.54295605	      0.00000000	      8.83396207	     -4.45626929	    -13.63203926	     16.89541994	     14.91833965	     -8.75535232	      0.00000000	    -18.57795480	      5.49595120	      8.81202490	     45.11956720	    -12.03436609	     45.80700770	     47.77982115	     94.77444024	     25.54264645	    -13.45871252	      9.69179295	     39.15893917	     84.88684512
      1.26666670	     -6.19515404	      7.55515638	   -167.68978895	      0.41768254	      0.94984929	     -0.17329120	     68.69460344	      4.98225641	     -6.24815566	    104.12348220	     22.71239235	      7.13100843	      0.00000000	      8.45046830	     -5.61211482	    -13.78087955	     16.31929981	     15.65349007	     -8.15565674	      0.00000000	    -18.49707241	      7.14411031	     11.40852782	     48.56282415	    -12.77057515	     37.99855616	     44.01128230	     97.27040366	     29.21011091	    -12.18848969	     13.15032460	     40.62075946	     89.89496425
      1.28333330	     -6.76501286	      8.69361298	   -166.27653128	      0.40500235	      0.95215964	     -0.16779788	     70.95251072	      5.52511624	     -6.88796170	    101.49176531	     18.63392643	      5.93249808	      0.00000000	      7.69551008	     -6.89149791	    -13.61315150	     16.95392455	     16.16899807	     -7.81239122	      0.00000000	    -19.20808973	      8.85547902	     11.91754697	     51.65882020	    -13.71029347	     35.24812727	     41.60035028	     97.20825716	     31.90685952	    -11.32110579	     14.57023785	     42.35708021	     90.89867820
      1.30000000	     -6.77848882	     10.06478930	   -164.40605733	      0.39178997	      0.95149490	     -0.16392326	     70.89001242	      5.44913909	     -9.34874371	    102.22852271	     15.98192439	     10.94165431	      0.00000000	      8.19330017	     -8.64707296	    -14.05552837	     18.08564141	     17.66629771	     -6.15974707	      0.00000000	    -18.98533704	     10.18981607	     11.57694902	     52.88435571	    -14.64709448	     32.42468373	     41.44413843	     96.52471338	     35.03668613	    -10.74934331	     17.34942530	     43.41849135	     92.20137454
      1.31666670	     -4.23236142	     12.68463518	   -164.34501956	      0.38048846	      0.94898311	     -0.16537882	     72.63331299	      9.31511233	    -10.08093453	    105.81546572	     13.99416840	     22.99774822	      0.00000000	     11.50833022	    -11.08098996	    -15.57780923	     18.95115987	     18.26827149	     -5.44778401	      0.00000000	    -15.96466788	     11.33513502	     12.98393260	     52.03236879	    -16.34072056	     29.91001446	     43.30561948	     94.96846641	     38.22812896	     -9.52103372	     20.37834757	     43.09538190	     93.62553358
      1.33333330	     -2.11066487	     14.16581909	   -165.11987341	      0.37053957	      0.94819523	     -0.16948921	     77.23404906	     13.09517141	     -8.13157098	    103.13772702	     22.13277822	     26.69623594	      0.00000000	     12.79557726	    -12.02983010	    -15.11091937	     17.81564415	     17.52382524	     -6.20492830	      0.00000000	    -13.91112034	     11.99950120	     13.42320965	     52.29874133	    -15.82953438	     29.22363507	     44.37115050	     93.77120887	     40.29364863	     -9.79758704	     21.81648130	     43.80905431	     94.11667085
      1.35000000	     -3.04334657	     12.74858573	   -161.60740525	      0.35850500	      0.94863171	     -0.16809286	     81.64536071	     11.66801742	     -3.74093956	     95.90612105	     26.61711188	     19.01807160	      0.00000000	     10.95685526	    -10.35490412	    -12.01469503	     16.49792100	     17.92225534	     -4.98792590	      0.00000000	    -14.65280842	     11.07735535	     10.06527777	     53.21334996	    -14.85511718	     28.57908516	     45.16885339	     93.18058008	     43.23276231	    -10.71878283	     22.83447238	     44.17764706	     94.23907256
      1.36666670	     -6.19963811	     10.58292649	   -155.38815175	      0.34379128	      0.95224884	     -0.15906187	     82.92025390	      5.94137426	     -1.04021508	     90.67855012	     22.13023081	     11.57838285	      0.00000000	      6.70969742	     -8.70738959	     -8.07037398	     14.75483379	     18.89409464	     -1.92734476	      0.00000000	    -17.38251420	     10.93224094	      5.21912712	     54.62274835	    -14.25587359	     26.99071956	     44.77013466	     91.72027892	     46.54289289	    -11.61391157	     26.25388251	     45.07322348	     94.26007153
      1.38333330	     -9.05559138	      8.83744619	   -149.45275369	      0.32595196	      0.95479627	     -0.14821191	     82.72000712	     -0.11186747	     -0.25749210	     87.13381792	     17.25443750	      8.11545476	      0.00000000	      2.56666147	     -8.36578906	     -4.77224154	     13.35839915	     20.54623163	      1.59283937	      0.00000000	    -19.61547256	     11.68124970	      1.32942917	     56.55089866	    -14.37354754	     26.29228418	     43.43293891	     89.53881437	     49.58511170	    -11.45425309	     30.08307708	     45.11051055	     93.37297090
      1.40000000	    -10.69245142	      7.87271190	   -144.64907314	      0.30734620	      0.95564333	     -0.13877526	     81.76571527	     -4.51934480	     -0.18779179	     84.21686861	     14.40096784	      6.88778432	      0.00000000	      0.21824896	     -8.90629185	     -2.32913509	     13.29087571	     21.24277907	      3.28924769	      0.00000000	    -20.81258221	     12.63545917	     -0.92331001	     58.85799381	    -15.49520382	     26.08000011	     41.87614150	     87.55753570	     52.17762974	    -10.20513030	     32.63967470	     44.55613135	     92.01933701
      1.41666670	    -10.80019014	      7.22326597	   -141.44668594	      0.28799922	      0.95723455	     -0.13203892	     80.78119581	     -6.95058134	      0.07523010	     81.54594361	     12.73155386	      6.80491193	      0.00000000	     -0.64356451	     -9.15154324	     -0.68931197	     13.79575163	     22.35303079	      3.81876046	      0.00000000	    -20.51564134	     12.36098569	     -1.90881388	     59.99266573	    -16.98833951	     27.17803264	     39.57776431	     82.61007329	     54.22320428	     -8.59226097	     37.40177125	     43.61764256	     87.73672494
      1.43333330	    -10.22725377	      7.26689503	   -139.36015051	      0.27068566	      0.95734940	     -0.12733431	     79.46023898	     -7.84669936	      0.22083528	     78.35291351	     11.30764826	      7.01948574	      0.00000000	     -0.33597877	     -9.58985598	      0.20874185	     14.80855617	     22.71968905	      3.89898532	      0.00000000	    -19.74012784	     12.21428637	     -1.85180385	     60.96986383	    -18.99367399	     26.85586191	     38.77328726	     82.03394114	     54.23903582	     -6.91255216	     37.54788151	     44.92912750	     87.16572035
      1.45000000	     -9.29294191	      7.26742866	   -138.07356889	      0.25516179	      0.95762872	     -0.12405151	     77.88739354	     -7.71505751	      0.98177877	     75.20886413	      9.27802332	      6.61768056	      0.00000000	      0.26212798	     -9.66098436	      0.86023476	     15.84490362	     22.40558570	      3.41239129	      0.00000000	    -19.46356947	     11.76687548	      0.14763600	     65.50812375	    -23.01394766	     35.66181650	     34.94465199	     67.88197340	     55.17208383	     -4.93311045	     41.47212650	     46.19027746	     72.54775371
      1.46666670	     -8.04925484	      7.53613112	   -137.09909906	      0.23702339	      0.95889163	     -0.12117743	     76.47340595	     -7.00734010	      2.00569519	     73.07555754	      7.98394858	      6.22534854	      0.00000000	      1.32631536	     -9.71159396	      1.48858175	     16.85351136	     20.47882427	      2.04411928	      0.00000000	    -19.61444273	     11.13674573	      5.27085649	     71.41546911	    -29.15830045	     39.36466892	     29.34568143	     67.34256886	     56.45177862	     -0.05493509	     43.01308151	     45.63422469	     71.48295208
      1.48333330	     -6.57183627	      7.71451670	   -135.75192272	      0.21275366	      0.95998686	     -0.11803014	     75.48050483	     -6.60829184	      2.98267186	     73.11531459	      7.94964939	      5.64525749	      0.00000000	      2.48182747	     -9.71114038	      2.04975812	     17.78517150	     19.22058118	      2.63954820	      0.00000000	    -19.21846035	     10.49277570	      9.27495588	     80.89264592	    -35.98073031	     60.35055456	     24.24459853	     59.02612433	     56.30937686	      2.44397506	     45.85409832	     48.68872223	     61.67597005
      1.50000000	     -5.61791230	      7.71158595	   -134.36920895	      0.18218022	      0.96008166	     -0.11495976	     74.41377956	     -5.72328816	      3.53853225	     75.41523096	      9.78571741	      5.33321503	      0.00000000	      2.74385144	    -10.32007226	      2.25545009	     18.48216023	     17.62602548	      3.34150882	      0.00000000	    -18.06054412	      8.99899049	     12.00488444	     84.63461041	    -42.37203083	     70.19411929	     26.78754532	     47.49730842	     54.86193549	      2.93985541	     49.44371783	     51.82553242	     52.53502619
      1.51666670	     -4.78772573	      7.79138803	   -132.13438122	      0.15057036	      0.95937748	     -0.10986635	     73.65060010	     -5.71323271	      3.15259789	     79.00013871	     12.83610334	      4.32903309	      0.00000000	      3.02091851	    -11.38494804	      2.74232013	     19.15709646	     16.53557548	      5.31455328	      0.00000000	    -15.38643089	      7.48412618	      9.65190466	     81.43199038	    -42.27263928	     66.33422390	     31.29341292	     45.87102385	     49.73758606	     -1.17579174	     48.17526158	     58.82405895	     51.69893157
